
<?xml version="1.0" standalone="no"?>
<!DOCTYPE svg PUBLIC "-//W3C//DTD SVG 20010904//EN"
 "http://www.w3.org/TR/2001/REC-SVG-20010904/DTD/svg10.dtd">
<svg version="1.0" xmlns="http://www.w3.org/2000/svg"
 width="905.000000pt" height="1280.000000pt" viewBox="0 0 905.000000 1280.000000"
 preserveAspectRatio="xMidYMid meet">
<metadata>
Created by potrace 1.15, written by Peter Selinger 2001-2017
</metadata>
<g transform="translate(0.000000,1280.000000) scale(0.100000,-0.100000)"
fill="#000000" stroke="none">
<path d="M2060 10259 c-123 -14 -286 -48 -363 -76 -156 -56 -258 -120 -502
-313 -414 -329 -635 -462 -740 -445 -52 8 -85 39 -85 81 0 56 -52 79 -109 49
-36 -18 -81 -105 -81 -155 0 -60 38 -121 95 -152 67 -36 125 -43 213 -24 155
32 315 142 557 382 105 105 194 183 260 228 55 38 127 92 159 118 58 49 144
100 131 79 -3 -6 -52 -46 -108 -88 -243 -183 -395 -393 -453 -622 -32 -126
-47 -335 -34 -474 32 -340 185 -616 426 -769 89 -57 150 -82 246 -102 143 -30
286 -16 401 39 117 55 238 180 304 313 l37 73 -12 97 c-21 175 -54 248 -132
292 -40 22 -56 25 -145 25 -122 -1 -159 -15 -163 -62 -3 -30 -1 -32 35 -38 63
-11 93 -26 108 -56 34 -66 10 -122 -83 -190 -65 -47 -91 -86 -100 -151 -10
-79 -79 -116 -229 -126 -78 -4 -89 -2 -189 34 -104 38 -108 41 -183 120 -147
156 -186 271 -186 559 0 218 21 348 66 405 15 19 41 68 58 109 90 213 217 337
367 358 l49 6 -37 -41 c-69 -76 -99 -157 -99 -262 0 -137 60 -277 134 -311 83
-37 102 -20 110 102 2 47 10 95 16 106 15 29 62 43 145 43 91 -1 136 -21 220
-99 36 -33 76 -63 91 -67 43 -11 109 5 193 46 90 43 125 81 208 220 111 187
210 239 428 226 203 -12 232 -18 384 -84 181 -79 408 -155 542 -183 138 -28
328 -31 418 -6 218 60 413 183 473 299 45 86 22 227 -46 287 -102 89 -389 110
-597 45 -143 -45 -291 -129 -390 -222 -42 -39 -46 -46 -36 -68 7 -14 25 -28
45 -33 31 -9 40 -5 131 56 117 78 219 128 292 144 81 17 259 7 307 -18 44 -23
83 -75 83 -110 0 -63 -63 -122 -184 -172 -215 -89 -489 -83 -601 12 -22 19
-74 50 -115 69 -41 19 -139 81 -217 137 -77 55 -190 125 -250 155 -193 97
-448 169 -703 201 -134 16 -432 18 -560 4z m644 -230 c42 -6 73 -15 70 -20 -3
-5 10 -7 28 -4 18 3 -1 -4 -42 -14 -41 -11 -110 -34 -153 -51 -91 -36 -192
-60 -259 -60 -39 0 -50 4 -62 23 -35 52 17 97 135 116 134 22 188 24 283 10z"/>
<path d="M7550 10230 c-320 -31 -636 -127 -985 -300 -322 -158 -569 -334 -805
-570 -213 -213 -461 -569 -612 -879 -49 -102 -111 -216 -137 -255 -26 -39 -74
-130 -106 -203 -32 -73 -60 -131 -62 -129 -2 1 31 94 72 205 178 481 274 662
534 1006 146 193 246 345 320 486 101 192 132 290 132 420 0 174 -84 240 -220
173 -95 -48 -116 -116 -55 -184 48 -52 53 -97 24 -186 -99 -302 -790 -1748
-921 -1928 l-29 -40 0 52 c0 28 7 100 16 159 31 207 7 494 -52 619 -27 58 -91
122 -152 153 -35 18 -47 19 -103 10 -128 -19 -156 -48 -144 -150 11 -96 53
-132 120 -104 21 8 45 15 54 14 9 -1 6 -4 -9 -10 -23 -7 -23 -8 7 -6 41 2 64
-20 96 -91 125 -278 91 -756 -94 -1313 -48 -146 -172 -433 -211 -491 -21 -30
-23 -59 -6 -76 22 -22 38 -13 70 38 17 28 33 50 35 50 2 0 -4 -16 -12 -36 -29
-70 -25 -74 64 -74 l79 0 66 71 c99 104 209 246 315 404 51 77 110 160 129
185 96 119 240 251 371 340 68 45 336 177 415 204 26 9 127 25 224 36 273 31
352 63 394 158 l20 44 -23 24 c-24 25 -53 36 -139 54 -78 15 -89 23 -66 49 16
18 31 21 104 21 93 0 101 4 238 115 83 68 155 80 276 45 26 -8 50 -11 54 -7 4
3 1 28 -7 54 -27 99 -196 215 -384 264 -69 18 -98 20 -210 15 -71 -4 -136 -2
-143 2 -16 11 9 34 69 65 37 18 44 27 44 51 0 20 -9 35 -28 50 -24 18 -42 21
-125 21 -94 0 -100 -1 -191 -45 -52 -25 -112 -60 -134 -77 -21 -18 -66 -47
-99 -65 -65 -35 -266 -215 -284 -255 -5 -13 -26 -35 -46 -48 -20 -14 -64 -58
-98 -100 -34 -41 -63 -75 -66 -75 -9 0 100 167 180 274 179 242 396 467 587
611 197 148 304 183 476 153 105 -17 152 1 292 112 132 105 173 129 243 137
43 5 58 2 102 -22 51 -27 53 -28 79 -10 15 9 27 21 27 26 0 24 -80 93 -144
124 -133 64 -199 76 -399 74 -97 -1 -179 0 -183 3 -8 9 56 45 121 67 89 29
241 58 405 76 197 21 292 45 429 110 189 88 292 107 601 108 225 1 286 -8 425
-62 98 -38 232 -128 294 -198 106 -118 162 -273 164 -453 2 -96 0 -110 -26
-161 -15 -31 -53 -85 -85 -119 l-57 -63 -81 0 c-85 -1 -101 5 -204 78 -33 23
-56 30 -104 33 -55 4 -64 1 -89 -22 -15 -14 -30 -26 -31 -26 -2 0 -9 13 -16
30 -16 39 -7 71 31 115 28 32 35 35 66 29 34 -6 34 -6 31 27 -4 47 -35 61
-124 57 -88 -4 -133 -30 -189 -113 -38 -55 -40 -62 -43 -146 -4 -81 -2 -92 24
-139 39 -71 102 -126 197 -170 184 -85 397 -54 592 85 82 58 148 134 188 215
29 58 32 75 35 170 11 322 -164 674 -415 840 -98 64 -208 103 -364 129 -68 11
-167 30 -219 41 -112 23 -281 32 -400 20z m-1738 -1948 c6 -6 14 -29 18 -52
l7 -41 -59 -40 c-32 -22 -80 -47 -106 -54 -97 -29 -349 -226 -606 -475 l-109
-105 82 121 c210 311 476 584 626 644 52 21 127 22 147 2z"/>
<path d="M1618 9763 c6 -2 18 -2 25 0 6 3 1 5 -13 5 -14 0 -19 -2 -12 -5z"/>
<path d="M3526 9523 c-76 -76 -127 -181 -230 -475 -21 -59 -53 -133 -72 -165
-29 -48 -39 -80 -59 -197 -56 -323 -60 -367 -60 -671 1 -372 29 -659 104
-1040 80 -409 94 -504 95 -670 1 -88 -3 -215 -8 -283 -10 -143 -3 -169 48
-174 l31 -3 -48 -29 c-69 -41 -161 -67 -243 -69 -59 -1 -79 3 -128 28 -146 74
-177 209 -71 311 48 47 113 66 141 43 26 -21 51 -81 73 -169 28 -112 49 -145
88 -144 17 1 43 8 59 15 26 13 29 20 32 69 4 67 -22 219 -55 319 -80 248 -245
476 -428 593 -116 74 -191 112 -209 105 -15 -6 -11 -16 27 -69 70 -99 77 -118
77 -205 0 -113 22 -151 127 -225 86 -61 127 -106 121 -135 -2 -10 -35 -35 -73
-56 -90 -49 -109 -68 -148 -146 -28 -58 -32 -75 -32 -151 0 -68 5 -93 22 -126
39 -74 115 -126 228 -159 130 -38 390 -2 576 80 221 97 519 285 641 405 107
105 104 132 -13 151 l-63 10 -54 -58 c-52 -55 -54 -51 -5 10 29 36 29 41 -3
62 -36 23 -50 15 -159 -86 -50 -46 -126 -113 -170 -149 -79 -64 -79 -64 -39
-18 27 31 47 68 59 110 20 69 54 141 80 173 9 11 13 14 9 6 -5 -10 -1 -11 14
-7 11 4 37 3 59 -2 30 -7 44 -6 59 5 26 21 188 11 276 -17 66 -20 158 -80 208
-135 14 -15 47 -38 73 -51 54 -28 133 -127 217 -274 128 -224 162 -495 93
-760 -22 -88 -27 -127 -27 -240 -1 -74 3 -152 7 -172 11 -51 52 -98 85 -98 39
0 46 8 76 86 16 44 39 82 58 100 18 16 27 22 21 14 -10 -13 -8 -16 8 -16 13 0
18 5 14 16 -5 12 -4 12 6 3 25 -25 14 -105 -26 -181 -36 -69 -37 -74 -32 -149
4 -58 13 -97 38 -153 29 -65 33 -86 33 -155 -1 -87 -16 -137 -74 -234 -39 -68
-30 -81 37 -56 124 45 241 128 310 219 78 103 112 197 132 363 13 106 30 139
67 138 32 -2 41 -22 43 -91 1 -32 8 -47 34 -72 l33 -32 21 22 c36 39 62 103
93 225 l30 118 -4 -205 c-7 -309 -52 -564 -134 -764 -81 -196 -167 -313 -309
-420 -157 -119 -297 -172 -429 -164 -105 7 -140 29 -184 114 -45 85 -73 95
-113 42 -92 -124 -21 -266 172 -339 107 -40 292 -9 427 72 184 112 381 343
507 594 58 117 91 210 133 370 18 72 33 121 34 110 0 -17 2 -17 10 -5 8 12 10
12 10 -5 1 -46 53 -164 130 -293 86 -144 132 -202 161 -202 10 0 35 20 57 45
50 57 75 140 75 255 1 73 -3 92 -26 137 -15 28 -29 71 -31 95 -3 24 -3 35 0
26 3 -10 10 -18 16 -18 5 0 7 8 4 17 -4 11 2 8 14 -7 45 -55 103 -163 155
-291 126 -304 188 -402 357 -564 242 -231 356 -307 573 -382 72 -24 159 -60
195 -80 l65 -36 155 -5 c136 -4 166 -2 240 17 111 28 210 75 290 140 86 69 98
86 160 221 l53 115 -7 80 c-11 147 -64 273 -160 381 -41 45 -71 68 -123 92
-132 60 -211 72 -348 49 -55 -10 -88 -23 -158 -66 -107 -66 -132 -94 -147
-167 -20 -95 22 -209 74 -202 18 3 22 12 27 61 7 63 30 104 70 124 29 15 113
17 104 3 -3 -5 0 -8 7 -5 8 3 32 -27 61 -75 71 -118 80 -122 254 -105 78 8 82
7 106 -17 47 -47 63 -217 28 -293 -23 -50 -103 -125 -169 -159 -104 -53 -194
-71 -347 -70 -109 1 -158 6 -219 23 -263 71 -484 267 -679 603 -84 143 -132
248 -247 528 -50 124 -111 267 -136 318 -24 52 -47 113 -50 135 -7 42 -81 176
-300 543 -154 258 -308 486 -412 609 -14 17 25 -20 85 -82 116 -117 227 -257
305 -383 25 -41 90 -147 144 -235 278 -455 387 -594 519 -659 52 -26 74 -31
162 -34 122 -5 156 5 221 63 61 55 84 102 84 167 -1 41 -6 56 -29 80 -29 30
-92 55 -116 45 -8 -3 -28 -29 -43 -58 -17 -31 -43 -61 -62 -72 -40 -24 -136
-26 -178 -4 -58 30 -245 262 -416 517 -240 357 -500 644 -808 890 -124 99
-318 229 -412 276 -38 19 -68 36 -68 39 0 3 134 -62 298 -144 164 -82 337
-163 384 -179 173 -61 395 -87 508 -58 158 39 312 152 371 272 69 140 29 284
-98 348 -37 19 -96 21 -144 5 -53 -18 -54 -24 -16 -71 73 -89 93 -169 61 -247
-52 -132 -347 -206 -615 -155 -106 20 -177 48 -315 125 -215 121 -472 233
-628 274 -261 67 -603 84 -836 40 -73 -14 -159 -25 -192 -25 l-60 0 45 50 c24
27 64 87 87 132 24 46 54 101 68 123 24 37 24 42 15 125 -8 68 -7 91 4 113 8
15 11 36 8 47 -6 20 -53 40 -96 40 -15 0 -30 3 -32 8 -3 4 2 32 10 62 19 70
12 197 -17 300 -26 96 -36 240 -21 298 9 31 35 69 87 128 41 46 72 89 69 94
-9 15 -94 12 -151 -5 -75 -22 -138 -69 -211 -156 l-66 -79 -29 40 c-33 44 -59
50 -107 26 -61 -32 -129 -137 -167 -259 -11 -37 -21 -53 -25 -44 -14 24 -31
270 -24 352 16 205 97 376 300 640 93 121 97 130 89 234 -6 84 -5 91 22 141
34 63 108 132 198 184 37 21 69 44 73 49 20 33 -101 55 -211 40 -117 -17 -175
-52 -302 -180 -61 -62 -113 -113 -117 -113 -19 0 85 261 199 498 l83 173 -32
19 c-18 11 -37 20 -42 20 -6 0 -32 -21 -59 -47z m112 -2559 c26 -18 33 40 -64
-541 -41 -243 -74 -451 -74 -463 0 -22 1 -22 26 -5 44 29 19 2 -33 -35 -26
-19 -43 -28 -36 -20 7 10 15 130 22 362 19 598 59 773 159 702z m1027 -676 c5
4 4 1 0 -7 -6 -11 -4 -13 9 -8 41 16 213 -105 308 -215 205 -240 334 -590 298
-812 -14 -90 -32 -122 -74 -136 -54 -18 -76 -1 -76 58 1 26 5 67 10 92 11 53
-3 236 -26 349 -24 116 -70 248 -117 330 -52 92 -164 209 -274 285 -46 32 -86
63 -90 69 -5 8 -2 8 9 0 8 -7 19 -9 23 -5z m-725 -133 c-7 -9 -36 -34 -64 -57
-47 -38 -47 -36 9 15 60 57 78 70 55 42z m-120 -99 c0 -2 -8 -10 -17 -17 -16
-13 -17 -12 -4 4 13 16 21 21 21 13z m1954 -762 c45 -107 75 -230 83 -337 l6
-88 -28 7 c-18 4 -30 2 -35 -6 -5 -8 -11 20 -15 66 -16 193 -64 395 -135 564
-47 114 -47 114 24 -10 36 -63 81 -151 100 -196z m13 -516 c-2 -13 -4 -5 -4
17 -1 22 1 32 4 23 2 -10 2 -28 0 -40z m100 -575 c-3 -10 -5 -2 -5 17 0 19 2
27 5 18 2 -10 2 -26 0 -35z"/>
<path d="M3588 6963 c6 -2 18 -2 25 0 6 3 1 5 -13 5 -14 0 -19 -2 -12 -5z"/>
<path d="M4690 6260 c8 -5 20 -10 25 -10 6 0 3 5 -5 10 -8 5 -19 10 -25 10 -5
0 -3 -5 5 -10z"/>
<path d="M5193 7328 c-70 -35 -269 -227 -414 -398 -66 -78 -259 -328 -259
-336 0 -3 10 -14 22 -24 20 -16 26 -17 50 -4 16 8 72 65 126 127 169 195 241
259 387 343 55 31 114 67 130 79 23 18 45 23 93 24 68 1 115 19 132 50 18 34
12 106 -11 135 -20 25 -25 26 -117 26 -80 0 -105 -4 -139 -22z"/>
<path d="M2988 6123 c6 -2 18 -2 25 0 6 3 1 5 -13 5 -14 0 -19 -2 -12 -5z"/>
<path d="M1644 5984 c-44 -21 -73 -55 -89 -100 -11 -33 -11 -41 4 -61 23 -32
36 -34 64 -12 14 10 33 19 44 18 16 0 16 -1 -2 -9 -15 -7 -11 -8 15 -4 110 17
192 -165 133 -296 -52 -116 -261 -252 -583 -380 -272 -108 -567 -299 -697
-452 -80 -93 -117 -174 -173 -378 -28 -101 -56 -193 -62 -204 -14 -26 -3 -279
17 -381 36 -187 239 -480 434 -624 118 -88 283 -161 461 -205 138 -35 215 -46
373 -55 206 -12 358 1 613 53 185 38 232 51 303 86 123 61 243 105 455 166
155 45 211 56 310 64 201 16 273 48 420 190 108 104 137 120 211 120 68 0 88
-17 111 -97 19 -68 34 -87 61 -79 40 13 55 88 29 149 -15 37 -78 95 -128 120
-18 8 -77 23 -131 32 -146 26 -265 10 -425 -57 -146 -60 -225 -103 -278 -149
-224 -194 -774 -452 -1030 -483 l-49 -6 39 15 c21 8 43 12 50 8 6 -3 8 -3 4 2
-4 4 25 22 66 40 283 123 536 338 853 725 111 135 238 267 302 315 19 14 75
49 124 78 168 98 214 157 227 296 7 62 5 79 -8 94 -20 23 -23 22 -67 -13 -29
-23 -41 -27 -51 -19 -22 18 6 59 93 136 196 173 230 226 244 384 9 107 24 152
69 209 28 36 29 39 14 55 -13 12 -26 15 -58 9 -59 -9 -93 -29 -162 -94 -59
-54 -139 -104 -155 -95 -15 10 14 93 56 160 89 142 282 351 367 398 43 22 95
22 158 -3 98 -39 158 -19 145 48 -9 49 -25 71 -65 92 -127 65 -252 12 -439
-185 -186 -197 -285 -383 -298 -556 -6 -87 -8 -95 -39 -128 -18 -20 -35 -33
-38 -30 -3 3 22 108 55 234 32 127 68 281 79 343 19 110 26 213 14 224 -7 7
-151 -24 -224 -49 l-54 -18 -23 -130 c-13 -71 -48 -273 -78 -447 -60 -347 -93
-490 -162 -703 -89 -272 -180 -456 -304 -616 -69 -88 -202 -225 -237 -243 -17
-9 -48 -41 -69 -71 -35 -52 -71 -81 -232 -187 -32 -22 -306 -143 -381 -170
-81 -28 -173 -45 -280 -52 l-95 -7 72 29 c108 44 215 100 246 130 85 80 117
238 67 332 -43 84 -108 130 -182 130 -51 0 -95 -25 -132 -73 -34 -44 -26 -67
23 -68 20 0 56 -6 81 -12 55 -15 70 -40 70 -120 0 -105 -53 -171 -189 -236
-73 -35 -80 -36 -181 -35 -375 3 -674 185 -721 439 -12 63 -6 161 13 217 18
55 74 105 150 134 85 32 103 56 94 121 -10 78 -49 117 -142 144 l-43 13 107
56 c123 63 144 87 162 184 16 84 38 106 119 115 86 10 96 24 47 67 -66 57
-122 79 -201 78 -84 0 -131 -15 -182 -56 -38 -30 -92 -60 -138 -78 -66 -25 53
87 165 155 110 67 159 80 305 80 148 0 213 -13 280 -56 51 -32 80 -83 90 -159
3 -25 8 -60 11 -78 7 -42 70 -113 123 -136 44 -21 61 -50 61 -108 0 -36 -6
-46 -47 -84 -43 -40 -46 -45 -35 -69 10 -22 18 -25 59 -25 91 1 164 53 204
148 49 115 65 265 36 335 -43 100 -182 234 -312 298 -95 47 -167 58 -360 59
-138 0 -181 -4 -230 -19 -73 -22 -155 -35 -155 -24 0 15 103 89 169 122 35 18
111 50 170 71 287 103 438 171 566 255 123 80 170 127 210 208 84 170 64 345
-51 446 -75 66 -181 89 -250 55z"/>
<path d="M3161 5576 c-7 -8 -15 -89 -21 -195 -34 -614 -195 -1187 -435 -1541
-71 -105 -87 -140 -66 -140 5 0 30 24 56 53 237 268 467 838 555 1376 23 141
46 421 37 445 -8 21 -109 23 -126 2z"/>
</g>
</svg>
